<svg xmlns="http://www.w3.org/2000/svg" viewBox="0 0 1280 640" width="1280" height="640">
  <rect width="1280" height="640" fill="#1A1A2E"/>

  <!-- Icon centered at (640, 250), scale 3.18 so circle is ~280px diameter -->
  <g transform="translate(640, 250) scale(3.18) translate(-54, -54)">
    <!-- Blue circle background -->
    <circle cx="54" cy="54" r="44" fill="#2196F3"/>

    <!-- Hex shield -->
    <path d="M54,26 L78.2,40 L78.2,68 L54,82 L29.8,68 L29.8,40 Z"
          fill="none" stroke="#FFFFFF" stroke-width="3" stroke-opacity="0.35"/>

    <!-- Telegram plane - matching the committed app icon transforms exactly -->
    <!-- Android: translateX=9, translateY=10, scaleX/Y=0.92, pivotX=43, pivotY=46 -->
    <!-- SVG equivalent: translate(9,10) then scale(0.92) around pivot(43,46) -->
    <g transform="translate(9,10) translate(43,46) scale(0.92) translate(-43,-46)">
      <path fill="#FFFFFF"
            d="M30.3652,44.5699C38.1874,41.1615 43.4013,38.9115 46.0124,37.8254C53.4624,34.7226 55.0096,34.1838 56.0179,34.1671C56.2402,34.1643 56.7374,34.2171 57.0596,34.4782C57.329,34.7004 57.404,34.9976 57.4402,35.206C57.4763,35.4143 57.5207,35.8921 57.4846,36.2643C57.0818,40.5088 55.3346,50.8143 54.4457,55.5699C54.0707,57.581 53.329,58.256 52.6124,58.3227C51.054,58.4643 49.8707,57.2921 48.3624,56.3004C46.0013,54.7532 44.6679,53.7865 42.3763,52.2754C39.7263,50.5282 41.4429,49.5699 42.954,48.0004C43.3485,47.5893 50.2124,41.3393 50.3457,40.7726C50.3624,40.7004 50.3763,40.4365 50.2207,40.2977C50.0624,40.1588 49.8318,40.206 49.6652,40.2449C49.429,40.2977 45.6568,42.7921 38.3485,47.731C37.279,48.4671 36.3068,48.8254 35.4402,48.806C34.4818,48.7865 32.6374,48.2643 31.2679,47.8171C29.5874,47.2726 28.5013,46.9893 28.6179,46.0615C28.679,45.5782 29.2624,45.081 30.3652,44.5699Z"/>
    </g>
  </g>

  <!-- Title text centered -->
  <text x="640" y="530" text-anchor="middle" fill="#FFFFFF" font-family="sans-serif" font-size="52" font-weight="bold" letter-spacing="4">KillergramNeo</text>
  <text x="640" y="580" text-anchor="middle" fill="#FFFFFF" font-family="sans-serif" font-size="24" opacity="0.5">Xposed module for Telegram</text>
</svg>
